<svg width="32" height="32" viewBox="0 0 32 32" xmlns="http://www.w3.org/2000/svg"><title>safari9_icon</title><path d="M16.066 32h-.095l-.046-.003-.047-.002-.048-.003-.048-.004-.047-.004-.046-.005-.048-.007-.046-.006-.046-.007-.046-.008-.046-.008-.045-.01-.045-.01-.045-.01-.044-.01-.045-.012-.044-.012-.042-.013-.043-.013-.042-.015-.042-.016-.04-.015-.04-.018-.04-.017-.04-.017-.04-.018-.038-.02-.038-.02-.037-.02-.037-.02-11.234-6.593-.036-.022-.036-.023L3.328 25l-.035-.026-.035-.025-.035-.027-.035-.027-.035-.028-.034-.03-.035-.03-.034-.03-.033-.03-.033-.032-.033-.032-.03-.033-.033-.033-.032-.035-.032-.035-.03-.035-.03-.037-.032-.037-.028-.037-.03-.037-.03-.038-.027-.04-.028-.04-.028-.04-.028-.04-.026-.04-.026-.04-.026-.042L2.43 24l-.025-.04-.024-.044-.022-.042-.023-.043-.022-.043-.02-.043-.022-.044-.02-.044-.018-.044-.02-.044-.017-.044-.017-.045-.017-.045-.014-.045-.016-.045-.014-.044-.014-.044-.012-.045-.012-.044-.01-.044-.012-.045-.01-.044-.008-.045-.008-.044-.007-.044-.006-.044-.005-.044-.004-.044-.004-.043-.002-.043v-.043L2 22.595V9.36l.002-.042.002-.043.004-.043.004-.044.005-.044.006-.044.007-.044.008-.044.01-.045.01-.044.01-.045.01-.044.012-.045.013-.046.014-.045.014-.045.016-.045.016-.045.017-.044.016-.044.02-.044.017-.044.02-.044.02-.044.02-.044.022-.043.022-.044.023-.044.023-.042.024-.043.025-.04.025-.043.025-.04.026-.042.027-.04.027-.04.028-.04.028-.04.03-.04.028-.038.03-.038.03-.038.03-.037.03-.037.032-.035.03-.035.033-.035.033-.034.033-.034.033-.032.032-.032.034-.03.033-.03.034-.03.034-.03.035-.028.035-.027.035-.026.035-.024L3.334 7l.035-.022.035-.023.036-.022L14.66.34l.036-.02.038-.02.038-.02.038-.02.04-.018.04-.017.04-.017.04-.017.042-.014.042-.015.042-.014.044-.013.043-.013.044-.012.044-.012.046-.01.045-.01.046-.01.046-.01.046-.008.047-.008.046-.007.048-.006.047-.006.047-.004.048-.004.047-.004.048-.003.047-.002L15.97 0h.191l.05.003.047.002.047.003.048.004.047.004.047.005.047.007.046.006.047.007.046.008.046.008.045.01.045.01.046.01.044.01.045.012.044.012.042.013.043.013.043.015.042.016.04.015.042.018.04.017.04.017.04.018.038.02.038.02.037.02.036.02 11.165 6.593.036.022.036.023.036.023.035.026.035.025.034.027.035.027.035.028.033.03.033.03.034.03.033.03.032.032.03.032.032.033.03.033.032.035.03.035.03.035.03.037.028.037.028.037.028.037.027.038.027.04.027.04.025.04.025.04.025.04.024.04.023.042.023.042.023.04.02.044.023.042.02.043.02.043.02.043.02.044.018.044.02.044.016.044.017.044.016.045.014.045.014.045.014.045.013.044.012.044.012.045.01.044.01.044.01.045.008.044.008.045.007.044.006.044.005.044.004.044.003.044.003.043.002.043.002.043V22.64l-.002.042-.002.043-.003.043-.004.044-.005.044-.006.044-.007.044-.007.044-.008.045-.008.044-.01.045-.01.044-.01.045-.012.046-.012.045-.013.045-.014.045-.015.045-.015.044-.016.044-.016.044-.018.044-.017.044-.02.044-.018.044-.02.043-.02.044-.02.044-.022.042-.022.043-.02.04-.024.043-.024.04-.024.042-.025.04-.025.04-.026.04-.026.04-.027.04-.03.038-.026.038-.03.038-.027.037-.03.037-.03.035-.03.035-.03.035-.03.034-.032.034-.032.032-.032.032-.03.03-.034.03-.033.03-.034.03-.034.028-.035.027-.033.026-.035.024-.035.025-.036.022-.034.023-.036.022-11.18 6.593-.035.02-.037.02-.038.02-.038.02-.04.018-.04.017-.04.017-.04.017-.04.014-.043.015-.044.014-.042.013-.043.013-.043.012-.044.012-.044.01-.046.01-.045.01-.047.01-.045.008-.046.008-.046.007-.047.006-.047.006-.047.004-.047.004-.048.004-.047.003-.047.002-.048.002h-.094zm5.52-17.935a.556.556 0 0 1-.552-.558V11.58a.556.556 0 0 0-.553-.56h-2.405l-.003 9.4c0 .31.248.56.553.56h1.918c.305 0 .552.25.552.558v1.904a.556.556 0 0 1-.552.558h-8.986a.556.556 0 0 1-.552-.558v-1.904c0-.308.247-.558.552-.558h1.918c.305 0 .553-.25.553-.56l-.003-9.4H11.62a.556.556 0 0 0-.554.56v1.927a.556.556 0 0 1-.553.558h-1.96A.556.556 0 0 1 8 13.507v-4.95C8 8.25 8.248 8 8.553 8h14.894c.305 0 .553.25.553.558v4.95a.556.556 0 0 1-.553.557h-1.86z" fill="#000" fill-rule="evenodd"/></svg>